<svg xmlns="http://www.w3.org/2000/svg" width="32" height="32" fill="none" viewBox="0 0 32 32">
  <g clip-path="url(#a)">
    <path fill="#fff" d="M22.193 10.386a.287.287 0 0 0-.286-.286l-2.357.01L16 14.344l-3.546-4.229-2.361-.01a.284.284 0 0 0-.286.285c0 .068.025.132.068.186l4.646 5.536-4.646 5.532a.287.287 0 0 0 .218.471l2.36-.01L16 17.87l3.546 4.229 2.358.01a.284.284 0 0 0 .285-.285.297.297 0 0 0-.068-.186l-4.639-5.532 4.647-5.536a.287.287 0 0 0 .064-.185Z"/>
    <path fill="#fff" d="M16 .036c-8.836 0-16 7.164-16 16 0 8.835 7.164 16 16 16s16-7.165 16-16c0-8.836-7.164-16-16-16Zm0 29.285c-7.336 0-13.286-5.95-13.286-13.285C2.714 8.7 8.664 2.75 16 2.75c7.336 0 13.286 5.95 13.286 13.286 0 7.335-5.95 13.285-13.286 13.285Z"/>
  </g>
  <defs>
    <clipPath id="a">
      <path fill="#fff" d="M0 0h32v32H0z"/>
    </clipPath>
  </defs>
</svg>
