<svg xmlns="http://www.w3.org/2000/svg" width="24" height="22" fill="none" viewBox="0 0 24 22">
  <path fill="#fff" d="M10.406.027C4.668.027 0 4.219 0 9.372c0 5.153 4.668 9.345 10.406 9.345 1.754 0 3.478-.374 4.935-1.095.117.126.246.242.387.347l2.973 2.67c.274.278.609.502.983.659a3.34 3.34 0 0 0 2.402.064 3.082 3.082 0 0 0 1.026-.606 2.73 2.73 0 0 0 .674-.92 2.48 2.48 0 0 0-.07-2.158 2.767 2.767 0 0 0-.734-.884l-2.973-2.67a2.931 2.931 0 0 0-.476-.347c.803-1.308 1.308-2.83 1.308-4.432C20.841 4.192 16.174 0 10.435 0l-.03.027Zm0 2.67c4.132 0 7.432 2.963 7.432 6.675a6.331 6.331 0 0 1-2.05 4.672c-.141.105-.27.221-.387.348-1.309 1.068-3.092 1.682-5.025 1.682-4.133 0-7.433-2.964-7.433-6.675 0-3.712 3.3-6.676 7.433-6.676l.03-.026Z"/>
</svg>
